{"title":"The Incantation 2018 1080p BluRay x264 DTS [MW]","magnet":"magnet:?xt=urn:btih:288a71ecb6695f0ac2c308338dee7e77a7755e74&dn=The+Incantation+2018+1080p+BluRay+x264+DTS+%5BMW%5D&tr=udp%3A%2F%2Ftracker.leechers-paradise.org%3A6969&tr=udp%3A%2F%2Fzer0day.ch%3A1337&tr=udp%3A%2F%2Fopen.demonii.com%3A1337&tr=udp%3A%2F%2Ftracker.coppersurfer.tk%3A6969&tr=udp%3A%2F%2Fexodus.desync.com%3A6969","uploader":"MFreaky","categoryP":"video","categoryS":"hd___movies","size":"2751291306","seeders":"27","leechers":"18","description":" <a href=\"https://pichub.site/image/E8L15\" rel=\"nofollow\" target=\"_NEW\">https://pichub.site/image/E8L15</a> <a href=\"\nhttps://pichub.site/image/E8oRh\" rel=\"nofollow\" target=\"_NEW\">\nhttps://pichub.site/image/E8oRh</a> <a href=\"\nhttps://pichub.site/image/E8pBj\" rel=\"nofollow\" target=\"_NEW\">\nhttps://pichub.site/image/E8pBj</a> <a href=\"\nhttps://pichub.site/image/E82Pr\" rel=\"nofollow\" target=\"_NEW\">\nhttps://pichub.site/image/E82Pr</a> <a href=\"\nhttps://pichub.site/image/E8lJk\" rel=\"nofollow\" target=\"_NEW\">\nhttps://pichub.site/image/E8lJk</a>\r\n\r\nIMDB <a href=\"\nhttps://www.imdb.com/title/tt5361596/\" rel=\"nofollow\" target=\"_NEW\">\nhttps://www.imdb.com/title/tt5361596/</a>\r\n\r\nVideo\r\nFormat                                   : AVC\r\nFormat/Info                              : Advanced Video Codec\r\nFormat profile                           : High@L4.1\r\nFormat settings                          : CABAC / 4 Ref Frames\r\nFormat settings, CABAC                   : Yes\r\nFormat settings, RefFrames               : 4 frames\r\nCodec ID                                 : V_MPEG4/ISO/AVC\r\nDuration                                 : 1 h 38 min\r\nBit rate                                 : 3 000 kb/s\r\nWidth                                    : 1 920 pixels\r\nHeight                                   : 1 080 pixels\r\nDisplay aspect ratio                     : 16:9\r\nFrame rate mode                          : Constant\r\nFrame rate                               : 23.976 (24000/1001) FPS\r\nColor space                              : YUV\r\nChroma subsampling                       : 4:2:0\r\nBit depth                                : 8 bits\r\nScan type                                : Progressive\r\nBits/(Pixel*Frame)                       : 0.060\r\nStream size                              : 2.04 GiB (80%)\r\nWriting library                          : x264 core 155 r2901 7d0ff22\r\n\r\nAudio\r\nFormat                                   : DTS\r\nFormat/Info                              : Digital Theater Systems\r\nCodec ID                                 : A_DTS\r\nDuration                                 : 1 h 38 min\r\nBit rate mode                            : Constant\r\nBit rate                                 : 756 kb/s\r\nChannel(s)                               : 6 channels\r\nChannel positions                        : Front: L C R, Side: L R, LFE\r\nSampling rate                            : 48.0 kHz\r\nFrame rate                               : 93.750 FPS (512 SPF)\r\nBit depth                                : 16 bits\r\nCompression mode                         : Lossy\r\nStream size                              : 532 MiB (20%)\r\nLanguage                                 : English","last_updated":"2018-09-20T12:36:02.562Z","parsed":{"xt":"urn:btih:288a71ecb6695f0ac2c308338dee7e77a7755e74","dn":"The Incantation 2018 1080p BluRay x264 DTS [MW]","tr":["udp://exodus.desync.com:6969","udp://open.demonii.com:1337","udp://tracker.coppersurfer.tk:6969","udp://tracker.leechers-paradise.org:6969","udp://zer0day.ch:1337"],"infoHash":"288a71ecb6695f0ac2c308338dee7e77a7755e74","infoHashBuffer":{"type":"Buffer","data":[40,138,113,236,182,105,95,10,194,195,8,51,141,238,126,119,167,117,94,116]},"name":"The Incantation 2018 1080p BluRay x264 DTS [MW]","announce":["udp://exodus.desync.com:6969","udp://open.demonii.com:1337","udp://tracker.coppersurfer.tk:6969","udp://tracker.leechers-paradise.org:6969","udp://zer0day.ch:1337"],"urlList":[]}}